<svg width="50" height="56" viewBox="0 0 50 56" fill="none" xmlns="http://www.w3.org/2000/svg">
<g filter="url(#filter0_d_14_6)">
<path d="M31.1909 24.75C31.1909 26.275 30.0594 27.525 28.6263 27.525C27.2183 27.525 26.0617 26.275 26.0617 24.75C26.0617 23.225 27.1931 21.975 28.6263 21.975C30.0594 21.975 31.1909 23.225 31.1909 24.75ZM19.4491 21.975C18.016 21.975 16.8846 23.225 16.8846 24.75C16.8846 26.275 18.0411 27.525 19.4491 27.525C20.8823 27.525 22.0137 26.275 22.0137 24.75C22.0389 23.225 20.8823 21.975 19.4491 21.975ZM46 6.15V51C39.6658 45.4342 41.6915 47.2766 34.3337 40.475L35.6663 45.1H7.15429C4.31314 45.1 2 42.8 2 39.95V6.15C2 3.3 4.31314 1 7.15429 1H40.8457C43.6869 1 46 3.3 46 6.15V6.15ZM38.8343 29.85C38.8343 21.8 35.2137 15.275 35.2137 15.275C31.5931 12.575 28.1486 12.65 28.1486 12.65L27.7966 13.05C32.0709 14.35 34.0571 16.225 34.0571 16.225C28.0846 12.9702 21.0689 12.9696 15.2754 15.5C14.3451 15.925 13.792 16.225 13.792 16.225C13.792 16.225 15.8789 14.25 20.4046 12.95L20.1531 12.65C20.1531 12.65 16.7086 12.575 13.088 15.275C13.088 15.275 9.46743 21.8 9.46743 29.85C9.46743 29.85 11.5794 33.475 17.136 33.65C17.136 33.65 18.0663 32.525 18.8206 31.575C15.6274 30.625 14.4206 28.625 14.4206 28.625C14.7904 28.8824 15.4004 29.2161 15.4514 29.25C19.6953 31.6131 25.7235 32.3873 31.1406 30.125C32.0206 29.8 33.0011 29.325 34.032 28.65C34.032 28.65 32.7749 30.7 29.4811 31.625C30.2354 32.575 31.1406 33.65 31.1406 33.65C36.6971 33.475 38.8343 29.85 38.8343 29.85V29.85Z" fill="white"/>
</g>
<defs>
<filter id="filter0_d_14_6" x="0" y="0" width="50" height="56" filterUnits="userSpaceOnUse" color-interpolation-filters="sRGB">
<feFlood flood-opacity="0" result="BackgroundImageFix"/>
<feColorMatrix in="SourceAlpha" type="matrix" values="0 0 0 0 0 0 0 0 0 0 0 0 0 0 0 0 0 0 127 0" result="hardAlpha"/>
<feOffset dx="1" dy="2"/>
<feGaussianBlur stdDeviation="1.5"/>
<feComposite in2="hardAlpha" operator="out"/>
<feColorMatrix type="matrix" values="0 0 0 0 0 0 0 0 0 0 0 0 0 0 0 0 0 0 1 0"/>
<feBlend mode="normal" in2="BackgroundImageFix" result="effect1_dropShadow_14_6"/>
<feBlend mode="normal" in="SourceGraphic" in2="effect1_dropShadow_14_6" result="shape"/>
</filter>
</defs>
</svg>
