<svg width="26" height="31" viewBox="0 0 26 31" fill="none" xmlns="http://www.w3.org/2000/svg">
<g filter="url(#filter0_d_56_78)">
<path d="M10.7031 13.1406L2.42892 4.86637C1.85703 4.29448 1.85703 3.36971 2.42892 2.8039L3.8039 1.42892C4.3758 0.857026 5.30056 0.857026 5.86637 1.42892L11.7313 7.29388L17.5963 1.42892C18.1682 0.857026 19.093 0.857026 19.6588 1.42892L21.0459 2.79782C21.6178 3.36971 21.6178 4.29448 21.0459 4.86029L12.7717 13.1345C12.1998 13.7125 11.275 13.7125 10.7031 13.1406ZM12.7717 24.8218L21.0459 16.5476C21.6178 15.9757 21.6178 15.051 21.0459 14.4851L19.6709 13.1102C19.099 12.5383 18.1743 12.5383 17.6085 13.1102L11.7374 18.969L5.87246 13.1041C5.30056 12.5322 4.3758 12.5322 3.80999 13.1041L2.42892 14.4791C1.85703 15.051 1.85703 15.9757 2.42892 16.5415L10.7031 24.8158C11.275 25.3937 12.1998 25.3937 12.7717 24.8218Z" fill="white" fill-opacity="0.7"/>
</g>
<defs>
<filter id="filter0_d_56_78" x="0" y="0" width="25.4748" height="30.25" filterUnits="userSpaceOnUse" color-interpolation-filters="sRGB">
<feFlood flood-opacity="0" result="BackgroundImageFix"/>
<feColorMatrix in="SourceAlpha" type="matrix" values="0 0 0 0 0 0 0 0 0 0 0 0 0 0 0 0 0 0 127 0" result="hardAlpha"/>
<feOffset dx="1" dy="2"/>
<feGaussianBlur stdDeviation="1.5"/>
<feComposite in2="hardAlpha" operator="out"/>
<feColorMatrix type="matrix" values="0 0 0 0 0 0 0 0 0 0 0 0 0 0 0 0 0 0 1 0"/>
<feBlend mode="normal" in2="BackgroundImageFix" result="effect1_dropShadow_56_78"/>
<feBlend mode="normal" in="SourceGraphic" in2="effect1_dropShadow_56_78" result="shape"/>
</filter>
</defs>
</svg>
