<svg width="50" height="50" viewBox="0 0 50 50" fill="none" xmlns="http://www.w3.org/2000/svg">
<g filter="url(#filter0_d_23_48)">
<path d="M24 1C11.8468 1 2 10.8468 2 23C2 35.1532 11.8468 45 24 45C36.1532 45 46 35.1532 46 23C46 10.8468 36.1532 1 24 1ZM34.8048 16.0718L31.1944 33.0863C30.9282 34.2927 30.2097 34.5855 29.2073 34.0177L23.7073 29.9637L21.0548 32.5185C20.7621 32.8113 20.5137 33.0597 19.946 33.0597L20.3363 27.4621L30.529 18.254C30.9726 17.8637 30.4315 17.6419 29.846 18.0323L17.2492 25.9629L11.8202 24.2685C10.6403 23.896 10.6137 23.0887 12.0685 22.521L33.279 14.3419C34.2637 13.9871 35.1242 14.5815 34.8048 16.0718V16.0718Z" fill="white"/>
</g>
<defs>
<filter id="filter0_d_23_48" x="0" y="0" width="50" height="50" filterUnits="userSpaceOnUse" color-interpolation-filters="sRGB">
<feFlood flood-opacity="0" result="BackgroundImageFix"/>
<feColorMatrix in="SourceAlpha" type="matrix" values="0 0 0 0 0 0 0 0 0 0 0 0 0 0 0 0 0 0 127 0" result="hardAlpha"/>
<feOffset dx="1" dy="2"/>
<feGaussianBlur stdDeviation="1.5"/>
<feComposite in2="hardAlpha" operator="out"/>
<feColorMatrix type="matrix" values="0 0 0 0 0 0 0 0 0 0 0 0 0 0 0 0 0 0 1 0"/>
<feBlend mode="normal" in2="BackgroundImageFix" result="effect1_dropShadow_23_48"/>
<feBlend mode="normal" in="SourceGraphic" in2="effect1_dropShadow_23_48" result="shape"/>
</filter>
</defs>
</svg>
