<svg width="50" height="50" viewBox="0 0 50 50" fill="none" xmlns="http://www.w3.org/2000/svg">
<g filter="url(#filter0_d_23_45)">
<path d="M41.2857 1H6.71429C4.11161 1 2 3.11161 2 5.71429V40.2857C2 42.8884 4.11161 45 6.71429 45H41.2857C43.8884 45 46 42.8884 46 40.2857V5.71429C46 3.11161 43.8884 1 41.2857 1ZM36.483 16.5964C36.5027 16.8714 36.5027 17.1562 36.5027 17.4312C36.5027 25.9464 30.0205 35.758 18.1759 35.758C14.5223 35.758 11.1339 34.6973 8.28571 32.8705C8.80625 32.9295 9.30714 32.9491 9.8375 32.9491C12.8527 32.9491 15.6223 31.9277 17.8321 30.1991C15.0036 30.1402 12.6268 28.2839 11.8116 25.7304C12.8036 25.8777 13.6973 25.8777 14.7187 25.6125C11.7723 25.0134 9.5625 22.4205 9.5625 19.2875V19.2089C10.417 19.6902 11.4187 19.9848 12.4696 20.0241C11.5861 19.4364 10.8619 18.6392 10.3614 17.7035C9.86103 16.7678 9.60005 15.7227 9.60179 14.6616C9.60179 13.4634 9.91607 12.3634 10.4759 11.4107C13.6482 15.3196 18.4116 17.8732 23.7545 18.1482C22.8411 13.7777 26.1116 10.2321 30.0402 10.2321C31.8964 10.2321 33.5661 11.008 34.7446 12.2652C36.1982 11.9902 37.5929 11.45 38.8304 10.7134C38.3491 12.2062 37.3375 13.4634 36.0018 14.2589C37.2982 14.1214 38.5554 13.758 39.7143 13.2571C38.8402 14.5438 37.7402 15.683 36.483 16.5964Z" fill="white"/>
</g>
<defs>
<filter id="filter0_d_23_45" x="0" y="0" width="50" height="50" filterUnits="userSpaceOnUse" color-interpolation-filters="sRGB">
<feFlood flood-opacity="0" result="BackgroundImageFix"/>
<feColorMatrix in="SourceAlpha" type="matrix" values="0 0 0 0 0 0 0 0 0 0 0 0 0 0 0 0 0 0 127 0" result="hardAlpha"/>
<feOffset dx="1" dy="2"/>
<feGaussianBlur stdDeviation="1.5"/>
<feComposite in2="hardAlpha" operator="out"/>
<feColorMatrix type="matrix" values="0 0 0 0 0 0 0 0 0 0 0 0 0 0 0 0 0 0 1 0"/>
<feBlend mode="normal" in2="BackgroundImageFix" result="effect1_dropShadow_23_45"/>
<feBlend mode="normal" in="SourceGraphic" in2="effect1_dropShadow_23_45" result="shape"/>
</filter>
</defs>
</svg>
